<?xml version="1.0" encoding="UTF-8" standalone="no"?>
<svg
   xmlns:dc="http://purl.org/dc/elements/1.1/"
   xmlns:cc="http://creativecommons.org/ns#"
   xmlns:rdf="http://www.w3.org/1999/02/22-rdf-syntax-ns#"
   xmlns:svg="http://www.w3.org/2000/svg"
   xmlns="http://www.w3.org/2000/svg"
   xmlns:sodipodi="http://sodipodi.sourceforge.net/DTD/sodipodi-0.dtd"
   xmlns:inkscape="http://www.inkscape.org/namespaces/inkscape"
   version="1.1"
   id="Capa_1"
   x="0px"
   y="0px"
   viewBox="0 0 48 48"
   style="enable-background:new 0 0 48 48;"
   xml:space="preserve"
   sodipodi:docname="icon-tel.svg"
   inkscape:version="1.0.2-2 (e86c870879, 2021-01-15)"><metadata
   id="metadata34"><rdf:RDF><cc:Work
       rdf:about=""><dc:format>image/svg+xml</dc:format><dc:type
         rdf:resource="http://purl.org/dc/dcmitype/StillImage" /></cc:Work></rdf:RDF></metadata><defs
   id="defs32" /><sodipodi:namedview
   pagecolor="#ffffff"
   bordercolor="#666666"
   borderopacity="1"
   objecttolerance="10"
   gridtolerance="10"
   guidetolerance="10"
   inkscape:pageopacity="0"
   inkscape:pageshadow="2"
   inkscape:window-width="1366"
   inkscape:window-height="715"
   id="namedview30"
   showgrid="false"
   inkscape:zoom="5.46875"
   inkscape:cx="14.282574"
   inkscape:cy="30.470511"
   inkscape:window-x="306"
   inkscape:window-y="1102"
   inkscape:window-maximized="1"
   inkscape:current-layer="Capa_1" />
<style
   type="text/css"
   id="style23">
	.st0{fill:#FFFFFF;}
	.st1{fill:#003561;}
</style>
<path
   class="st0"
   d="M24,0C10.75,0,0,10.75,0,24s10.75,24,24,24s24-10.75,24-24S37.25,0,24,0z M36.43,33.24  c0,0.81-0.34,1.58-0.94,2.12c-0.6,0.55-1.4,0.82-2.21,0.74c-2.77-0.25-5.44-0.99-7.95-2.18c-2.43-1.16-4.64-2.72-6.55-4.63  c-1.91-1.91-3.47-4.12-4.63-6.55c-1.19-2.5-1.93-5.18-2.18-7.95c-0.01-0.09-0.01-0.18-0.01-0.26c0-0.72,0.27-1.41,0.75-1.95  c0.54-0.6,1.32-0.94,2.12-0.94h3.86c1.46,0,2.69,1.09,2.86,2.54c0.1,0.85,0.27,1.7,0.52,2.52c0.31,1.02,0.04,2.13-0.71,2.88  l-1.56,1.56c1.64,2.99,4.14,5.49,7.13,7.13l1.56-1.56c0.75-0.75,1.85-1.02,2.88-0.71c0.82,0.25,1.67,0.43,2.52,0.52  c1.45,0.16,2.54,1.39,2.54,2.86V33.24z"
   id="path25"
   style="fill:#ffa500;fill-opacity:1" />
<path
   class="st1"
   d="M58,68.05"
   id="path27" />
</svg>
