<?xml version="1.0" encoding="UTF-8" standalone="no"?>
<svg
   xmlns:dc="http://purl.org/dc/elements/1.1/"
   xmlns:cc="http://creativecommons.org/ns#"
   xmlns:rdf="http://www.w3.org/1999/02/22-rdf-syntax-ns#"
   xmlns:svg="http://www.w3.org/2000/svg"
   xmlns="http://www.w3.org/2000/svg"
   xmlns:sodipodi="http://sodipodi.sourceforge.net/DTD/sodipodi-0.dtd"
   xmlns:inkscape="http://www.inkscape.org/namespaces/inkscape"
   version="1.1"
   id="Capa_1"
   x="0px"
   y="0px"
   viewBox="0 0 48 48"
   style="enable-background:new 0 0 48 48;"
   xml:space="preserve"
   sodipodi:docname="icon-mail.svg"
   inkscape:version="1.0.2-2 (e86c870879, 2021-01-15)"><metadata
   id="metadata903"><rdf:RDF><cc:Work
       rdf:about=""><dc:format>image/svg+xml</dc:format><dc:type
         rdf:resource="http://purl.org/dc/dcmitype/StillImage" /></cc:Work></rdf:RDF></metadata><defs
   id="defs901" /><sodipodi:namedview
   pagecolor="#ffffff"
   bordercolor="#666666"
   borderopacity="1"
   objecttolerance="10"
   gridtolerance="10"
   guidetolerance="10"
   inkscape:pageopacity="0"
   inkscape:pageshadow="2"
   inkscape:window-width="1366"
   inkscape:window-height="715"
   id="namedview899"
   showgrid="false"
   inkscape:zoom="7.7339804"
   inkscape:cx="10.991327"
   inkscape:cy="27.995386"
   inkscape:window-x="306"
   inkscape:window-y="1102"
   inkscape:window-maximized="1"
   inkscape:current-layer="Capa_1" />
<style
   type="text/css"
   id="style894">
	.st0{fill:#FFFFFF;}
</style>
<path
   class="st0"
   d="M24,0C10.75,0,0,10.75,0,24s10.75,24,24,24s24-10.75,24-24S37.25,0,24,0z M9.88,14.28  c0.01-0.01,0.03-0.02,0.04-0.03c0.01-0.01,0.02-0.01,0.03-0.02c0.01-0.01,0.03-0.02,0.04-0.03c0.01-0.01,0.02-0.01,0.03-0.02  c0.01-0.01,0.03-0.02,0.05-0.02c0.01-0.01,0.02-0.01,0.04-0.02c0.02-0.01,0.03-0.01,0.05-0.02c0.01,0,0.02-0.01,0.04-0.01  c0.02-0.01,0.03-0.01,0.05-0.02c0.01,0,0.02-0.01,0.04-0.01c0.02,0,0.04-0.01,0.05-0.01c0.01,0,0.02-0.01,0.04-0.01  c0.02,0,0.04-0.01,0.06-0.01c0.01,0,0.02,0,0.03,0c0.03,0,0.06,0,0.09,0h27.3c0.03,0,0.06,0,0.09,0c0.01,0,0.02,0,0.03,0  c0.02,0,0.04,0,0.06,0.01c0.01,0,0.02,0,0.04,0.01c0.02,0,0.04,0.01,0.05,0.01c0.01,0,0.02,0.01,0.04,0.01  c0.02,0.01,0.03,0.01,0.05,0.02c0.01,0,0.02,0.01,0.04,0.01c0.02,0.01,0.03,0.01,0.05,0.02c0.01,0.01,0.02,0.01,0.04,0.02  c0.02,0.01,0.03,0.02,0.05,0.02c0.01,0.01,0.02,0.01,0.03,0.02c0.01,0.01,0.03,0.02,0.04,0.03c0.01,0.01,0.02,0.01,0.03,0.02  c0.01,0.01,0.03,0.02,0.04,0.03c0.01,0.01,0.01,0.01,0.02,0.02L24.99,27.87c-0.21,0.21-0.49,0.32-0.78,0.32  c-0.3,0-0.57-0.11-0.78-0.32L9.86,14.3C9.86,14.3,9.87,14.29,9.88,14.28z M9.45,17.02l6.99,6.99l-6.99,6.99V17.02z M37.85,33.97  H10.57c-0.26,0-0.51-0.09-0.7-0.25l8.13-8.13l3.85,3.85c0.63,0.63,1.46,0.97,2.35,0.97c0.89,0,1.72-0.35,2.35-0.97l3.87-3.87  l8.14,8.15C38.37,33.87,38.12,33.97,37.85,33.97z M38.96,30.98L31.98,24l6.98-6.98V30.98z"
   id="path896"
   style="fill:#ffa500;fill-opacity:1" />
</svg>
