<?xml version="1.0" encoding="utf-8"?>
<!-- Generator: Adobe Illustrator 24.0.2, SVG Export Plug-In . SVG Version: 6.00 Build 0)  -->
<svg version="1.1" id="Capa_1" xmlns="http://www.w3.org/2000/svg" xmlns:xlink="http://www.w3.org/1999/xlink" x="0px" y="0px"
	 viewBox="0 0 48 48" style="enable-background:new 0 0 48 48;" xml:space="preserve">
<style type="text/css">
	.st0{fill:#FFFFFF;}
	.st1{fill:#003561;}
</style>
<path class="st0" d="M24,0C10.75,0,0,10.75,0,24s10.75,24,24,24s24-10.75,24-24S37.25,0,24,0z M36.43,33.24
	c0,0.81-0.34,1.58-0.94,2.12c-0.6,0.55-1.4,0.82-2.21,0.74c-2.77-0.25-5.44-0.99-7.95-2.18c-2.43-1.16-4.64-2.72-6.55-4.63
	c-1.91-1.91-3.47-4.12-4.63-6.55c-1.19-2.5-1.93-5.18-2.18-7.95c-0.01-0.09-0.01-0.18-0.01-0.26c0-0.72,0.27-1.41,0.75-1.95
	c0.54-0.6,1.32-0.94,2.12-0.94h3.86c1.46,0,2.69,1.09,2.86,2.54c0.1,0.85,0.27,1.7,0.52,2.52c0.31,1.02,0.04,2.13-0.71,2.88
	l-1.56,1.56c1.64,2.99,4.14,5.49,7.13,7.13l1.56-1.56c0.75-0.75,1.85-1.02,2.88-0.71c0.82,0.25,1.67,0.43,2.52,0.52
	c1.45,0.16,2.54,1.39,2.54,2.86V33.24z"/>
<path class="st1" d="M58,68.05"/>
</svg>
